<?xml version="1.0" encoding="UTF-8"?>
<svg width="136px" height="113px" viewBox="0 0 136 113" version="1.1" xmlns="http://www.w3.org/2000/svg" xmlns:xlink="http://www.w3.org/1999/xlink">
    <!-- Generator: Sketch 52.2 (67145) - http://www.bohemiancoding.com/sketch -->
    <title>khalti logo-01</title>
    <desc>Created with Sketch.</desc>
    <g id="Page-1" stroke="none" stroke-width="1" fill="none" fill-rule="evenodd">
        <g id="khalti-logo-01" transform="translate(2.000000, 0.000000)">
            <g id="XMLID_486_" transform="translate(18.000000, 0.000000)" fill="#5D2E8E" fill-rule="nonzero">
                <g id="XMLID_487_">
                    <path d="M114.4,2.2 C113.2,0.9 111.7,0.2 109.8,0.2 L6.2,0.2 C4.3,0.2 2.7,0.9 1.6,2.2 C0.4,3.5 -0.1,5.1 0.2,7 L7.6,78.1 C8,82.3 11.5,87.5 15,89.7 L51.6,111.3 C53.3,112.3 55.7,112.9 58.1,112.9 C60.6,112.9 62.9,112.3 64.6,111.3 L101.2,89.7 C104.8,87.7 108.1,82.3 108.6,78.1 L116,7 C116,5.3 115.6,3.5 114.4,2.2 Z M84.4,81 C81.4,83 77.4,82.2 75.4,79.3 L56.7,51.8 L45.4,63.1 L45.4,75.6 C45.4,79.2 42.5,82.1 38.9,82.1 C35.3,82.1 32.4,79.2 32.4,75.6 L32.4,21.4 C32.4,17.8 35.3,14.9 38.9,14.9 C42.5,14.9 45.4,17.8 45.4,21.4 L45.4,44.7 L73.3,16.8 C75.8,14.3 80,14.3 82.5,16.8 C85,19.3 85,23.5 82.5,26 L66,42.4 C66,42.5 66.1,42.5 66.1,42.6 L86.1,71.9 C88.1,74.9 87.3,78.9 84.4,81 Z" id="XMLID_488_"></path>
                </g>
            </g>
            <g id="XMLID_432_" transform="translate(8.500000, 38.000000) rotate(-6.000000) translate(-8.500000, -38.000000) translate(0.000000, 18.000000)" fill="#F9A61C">
                <g id="XMLID_453_-link" transform="translate(0.000000, 1.000000)">
                    <polygon id="XMLID_453_" points="12.5 0.1 0.2 1.6 4.8 38.1 16.3 36.8"></polygon>
                </g>
                <g id="XMLID_454_">
                    <g id="XMLID_455_">
                        <rect id="XMLID_456_" x="0.1" y="0.9" width="16.5" height="38.4"></rect>
                    </g>
                </g>
            </g>
        </g>
    </g>
</svg>