<svg width="184" height="88" viewBox="0 0 184 88" fill="none" xmlns="http://www.w3.org/2000/svg">
<path d="M13.7158 36.3036L57.2525 10.0869V69.449H13.7158V36.3036Z" fill="#FFBC62"/>
<path d="M42.9008 55.8578C42.3604 60.0831 40.5792 64.0532 37.7824 67.2662C34.9857 70.4791 31.299 72.7906 27.1885 73.9083C23.0781 75.026 18.7285 74.8997 14.6898 73.5454C10.6512 72.191 7.10481 69.6695 4.4992 66.2997C1.89359 62.9299 0.34577 58.8631 0.0514657 54.6135C-0.242838 50.364 0.729594 46.1227 2.84579 42.4258C4.96199 38.729 8.12691 35.7427 11.9403 33.8446C15.7537 31.9464 20.0444 31.2218 24.2696 31.7621L21.5374 53.1255L42.9008 55.8578Z" fill="#00A674"/>
<path d="M28.2475 75.6083C25.2493 75.6083 22.0156 75.3084 18.5462 74.7088C15.0769 74.1092 12.3999 73.3382 10.5153 72.3959L13.3422 61.1527C15.2696 62.2234 17.4754 63.0801 19.9596 63.7225C22.4867 64.365 25.1422 64.6862 27.9263 64.6862C30.8817 64.6862 32.3593 63.851 32.3593 62.1806C32.3593 61.1955 31.8025 60.3603 30.6889 59.675C29.5753 58.9897 27.7978 58.1545 25.3564 57.1693C22.5724 56.0129 20.1952 54.8778 18.225 53.7642C16.2976 52.6078 14.6271 51.1087 13.2137 49.2669C11.8431 47.3823 11.1578 45.1337 11.1578 42.521C11.1578 39.6513 11.9502 37.2313 13.5349 35.261C15.1625 33.248 17.3255 31.7703 20.0239 30.828C22.7223 29.8429 25.7205 29.3503 29.0185 29.3503C31.7597 29.3503 34.6937 29.6715 37.8204 30.314C40.9899 30.9136 43.4527 31.6632 45.2088 32.5627L41.9964 43.4847C40.4545 42.6709 38.42 41.9427 35.8929 41.3003C33.3659 40.615 31.1815 40.2723 29.3397 40.2723C27.9263 40.2723 26.8341 40.4865 26.0631 40.9148C25.335 41.3431 24.9709 41.9427 24.9709 42.7137C24.9709 43.656 25.5491 44.5126 26.7056 45.2836C27.9049 46.0117 29.6824 46.8684 32.0381 47.8535C34.865 48.9671 37.2207 50.0593 39.1053 51.1301C41.0327 52.2009 42.6817 53.6786 44.0523 55.5631C45.4658 57.4049 46.1725 59.6964 46.1725 62.4376C46.1725 66.5066 44.6091 69.7189 41.4825 72.0747C38.3558 74.4304 33.9441 75.6083 28.2475 75.6083Z" fill="#FCFFFE"/>
<path d="M76.3905 27.4047C75.1313 27.4047 73.7731 27.2788 72.3161 27.027C70.859 26.7751 69.7348 26.4514 68.9433 26.0556L70.1305 21.3337C70.94 21.7834 71.8664 22.1431 72.9097 22.413C73.971 22.6828 75.0863 22.8177 76.2555 22.8177C77.4967 22.8177 78.1173 22.4669 78.1173 21.7654C78.1173 21.3517 77.8835 21.0009 77.4158 20.7131C76.9481 20.4252 76.2016 20.0745 75.1762 19.6607C74.007 19.1751 73.0086 18.6984 72.1812 18.2307C71.3717 17.745 70.6701 17.1154 70.0765 16.3419C69.5009 15.5504 69.2131 14.606 69.2131 13.5087C69.2131 12.3035 69.5459 11.2872 70.2114 10.4597C70.895 9.61424 71.8034 8.99364 72.9367 8.59789C74.07 8.18416 75.3291 7.97729 76.7142 7.97729C77.8655 7.97729 79.0977 8.11221 80.4109 8.38203C81.742 8.63387 82.7763 8.94867 83.5139 9.32642L82.1647 13.9135C81.5171 13.5717 80.6627 13.2659 79.6014 12.996C78.5401 12.7082 77.6227 12.5643 76.8492 12.5643C76.2555 12.5643 75.7968 12.6543 75.473 12.8342C75.1672 13.014 75.0143 13.2659 75.0143 13.5897C75.0143 13.9854 75.2572 14.3452 75.7429 14.669C76.2465 14.9748 76.9931 15.3345 77.9824 15.7483C79.1697 16.216 80.159 16.6747 80.9505 17.1244C81.76 17.5741 82.4525 18.1947 83.0282 18.9862C83.6218 19.7597 83.9186 20.7221 83.9186 21.8733C83.9186 23.5822 83.262 24.9313 81.9489 25.9207C80.6357 26.9101 78.7829 27.4047 76.3905 27.4047ZM93.6418 13.5087C94.5412 13.5087 95.3777 13.7785 96.1512 14.3182C96.9247 14.8399 97.5453 15.6134 98.013 16.6387C98.4807 17.664 98.7145 18.8962 98.7145 20.3353C98.7145 22.5839 98.2738 24.3287 97.3924 25.5699C96.5289 26.7931 95.3327 27.4047 93.8037 27.4047C93.1021 27.4047 92.4726 27.2698 91.9149 27C91.3753 26.7122 90.8716 26.2625 90.4039 25.6509V32.3965H85.8169V13.9135H89.5944L89.9182 15.3166C90.26 14.7229 90.7547 14.2732 91.4022 13.9674C92.0678 13.6616 92.8143 13.5087 93.6418 13.5087ZM91.9419 23.6272C92.6075 23.6272 93.1111 23.3574 93.4529 22.8177C93.8127 22.2601 93.9926 21.4686 93.9926 20.4432C93.9926 19.4179 93.8127 18.6354 93.4529 18.0958C93.1111 17.5561 92.6075 17.2863 91.9419 17.2863C91.3483 17.2863 90.8356 17.4752 90.4039 17.8529V23.0336C90.8536 23.4293 91.3663 23.6272 91.9419 23.6272ZM106.883 27.4047C104.778 27.4047 103.159 26.8021 102.026 25.5969C100.893 24.3917 100.326 22.6738 100.326 20.4432C100.326 18.2307 100.893 16.5218 102.026 15.3166C103.159 14.1113 104.769 13.5087 106.856 13.5087C108.781 13.5087 110.265 14.0664 111.308 15.1816C112.352 16.2969 112.873 17.8889 112.873 19.9576C112.873 20.6771 112.828 21.2617 112.738 21.7114H105.021C105.021 22.323 105.282 22.7997 105.804 23.1415C106.325 23.4653 107.054 23.6272 107.989 23.6272C108.709 23.6272 109.428 23.5552 110.148 23.4113C110.885 23.2674 111.542 23.0695 112.118 22.8177L112.522 26.1905C111.839 26.5863 111.002 26.8831 110.013 27.0809C109.042 27.2968 107.998 27.4047 106.883 27.4047ZM108.178 19.31C108.178 18.6624 108.043 18.1677 107.773 17.8259C107.504 17.4662 107.117 17.2863 106.613 17.2863C106.11 17.2863 105.714 17.4662 105.426 17.8259C105.156 18.1677 105.021 18.6624 105.021 19.31H108.178ZM120.367 13.5087C122.184 13.5087 123.56 13.9584 124.496 14.8578C125.431 15.7573 125.899 17.0614 125.899 18.7703V27H121.959L121.69 25.5429C121.204 26.1545 120.628 26.6222 119.963 26.946C119.297 27.2518 118.578 27.4047 117.804 27.4047C116.617 27.4047 115.69 27.063 115.025 26.3794C114.359 25.6958 114.026 24.7604 114.026 23.5732C114.026 21.9722 114.656 20.749 115.915 19.9036C117.174 19.0581 118.973 18.6354 121.312 18.6354V18.0688C121.312 17.3672 120.709 17.0165 119.504 17.0165C118.892 17.0165 118.218 17.1064 117.48 17.2863C116.761 17.4482 116.05 17.682 115.349 17.9878L114.512 14.8848C115.304 14.4531 116.23 14.1203 117.291 13.8865C118.371 13.6346 119.396 13.5087 120.367 13.5087ZM120.098 24.1398C120.601 24.1398 121.006 23.96 121.312 23.6002V20.9289C120.484 20.9289 119.846 21.0818 119.396 21.3876C118.964 21.6934 118.748 22.1431 118.748 22.7368C118.748 23.1685 118.865 23.5103 119.099 23.7621C119.333 24.0139 119.666 24.1398 120.098 24.1398ZM136.876 19.9576L141.14 27H135.878L133.045 21.6035H132.775V27H128.188V7.30273H132.775V18.3656H133.045L135.743 13.9135H141.14L136.876 19.9576ZM157.461 27.4047C154.835 27.4047 152.802 26.7212 151.363 25.3541C149.942 23.969 149.231 21.9992 149.231 19.4449V8.38203H154.897V19.7147C154.897 20.6141 155.113 21.3157 155.545 21.8193C155.995 22.305 156.633 22.5479 157.461 22.5479C158.288 22.5479 158.918 22.305 159.35 21.8193C159.799 21.3157 160.024 20.6141 160.024 19.7147V8.38203H165.691V19.4449C165.691 21.9992 164.971 23.969 163.532 25.3541C162.111 26.7212 160.087 27.4047 157.461 27.4047ZM176.355 13.5087C177.254 13.5087 178.091 13.7785 178.864 14.3182C179.638 14.8399 180.258 15.6134 180.726 16.6387C181.194 17.664 181.428 18.8962 181.428 20.3353C181.428 22.5839 180.987 24.3287 180.106 25.5699C179.242 26.7931 178.046 27.4047 176.517 27.4047C175.815 27.4047 175.186 27.2698 174.628 27C174.088 26.7122 173.585 26.2625 173.117 25.6509V32.3965H168.53V13.9135H172.308L172.631 15.3166C172.973 14.7229 173.468 14.2732 174.115 13.9674C174.781 13.6616 175.527 13.5087 176.355 13.5087ZM174.655 23.6272C175.321 23.6272 175.824 23.3574 176.166 22.8177C176.526 22.2601 176.706 21.4686 176.706 20.4432C176.706 19.4179 176.526 18.6354 176.166 18.0958C175.824 17.5561 175.321 17.2863 174.655 17.2863C174.061 17.2863 173.549 17.4752 173.117 17.8529V23.0336C173.567 23.4293 174.079 23.6272 174.655 23.6272Z" fill="#FFBC62"/>
<path d="M67.751 35.7296H76.9961L84.9205 49.3771H85.3607V35.7296H94.6058V66.1063H86.2412L77.4364 51.1381H76.9961V66.1063H67.751V35.7296ZM109.486 66.7667C106.052 66.7667 103.411 65.7835 101.562 63.8171C99.7126 61.8507 98.7881 59.0478 98.7881 55.4084C98.7881 51.7985 99.7126 49.0103 101.562 47.0439C103.411 45.0774 106.037 44.0942 109.442 44.0942C112.582 44.0942 115.004 45.0041 116.706 46.8237C118.408 48.6434 119.259 51.2408 119.259 54.616C119.259 55.79 119.186 56.7438 119.039 57.4776H106.448C106.448 58.4755 106.874 59.2532 107.725 59.8109C108.576 60.3392 109.765 60.6033 111.291 60.6033C112.465 60.6033 113.639 60.4859 114.813 60.2511C116.016 60.0163 117.087 59.6935 118.027 59.2826L118.687 64.7856C117.572 65.4313 116.207 65.9156 114.593 66.2384C113.008 66.5906 111.306 66.7667 109.486 66.7667ZM111.599 53.5594C111.599 52.5029 111.379 51.6957 110.939 51.1381C110.499 50.5511 109.867 50.2576 109.046 50.2576C108.224 50.2576 107.578 50.5511 107.109 51.1381C106.668 51.6957 106.448 52.5029 106.448 53.5594H111.599ZM135.345 44.0942C136.813 44.0942 138.178 44.5345 139.44 45.415C140.702 46.2661 141.714 47.5281 142.477 49.201C143.24 50.874 143.622 52.8844 143.622 55.2324C143.622 58.901 142.903 61.7479 141.465 63.773C140.056 65.7688 138.104 66.7667 135.609 66.7667C134.465 66.7667 133.438 66.5466 132.528 66.1063C131.647 65.6367 130.826 64.903 130.062 63.9051V74.9112H122.578V44.7546H128.742L129.27 47.0439C129.828 46.0753 130.635 45.3416 131.691 44.8426C132.777 44.3437 133.995 44.0942 135.345 44.0942ZM132.572 60.6033C133.658 60.6033 134.48 60.1631 135.037 59.2826C135.624 58.3727 135.918 57.0814 135.918 55.4084C135.918 53.7355 135.624 52.4588 135.037 51.5783C134.48 50.6979 133.658 50.2576 132.572 50.2576C131.603 50.2576 130.767 50.5658 130.062 51.1821V59.6348C130.796 60.2805 131.633 60.6033 132.572 60.6033ZM155.82 44.0942C158.785 44.0942 161.03 44.828 162.556 46.2954C164.082 47.7629 164.845 49.8908 164.845 52.6789V66.1063H158.418L157.978 63.729C157.185 64.7269 156.246 65.49 155.16 66.0183C154.074 66.5172 152.9 66.7667 151.638 66.7667C149.701 66.7667 148.19 66.209 147.104 65.0938C146.018 63.9785 145.475 62.4523 145.475 60.5153C145.475 57.9032 146.502 55.9074 148.556 54.528C150.611 53.1485 153.546 52.4588 157.361 52.4588V51.5343C157.361 50.3897 156.378 49.8174 154.412 49.8174C153.414 49.8174 152.313 49.9641 151.11 50.2576C149.936 50.5218 148.776 50.9033 147.632 51.4022L146.267 46.3395C147.558 45.6351 149.07 45.0921 150.802 44.7106C152.563 44.2997 154.235 44.0942 155.82 44.0942ZM155.38 61.4398C156.202 61.4398 156.862 61.1463 157.361 60.5593V56.2009C156.011 56.2009 154.969 56.4504 154.235 56.9493C153.531 57.4482 153.179 58.182 153.179 59.1505C153.179 59.8549 153.37 60.4125 153.751 60.8234C154.133 61.2343 154.676 61.4398 155.38 61.4398ZM168.58 33.9687H176.064V66.1063H168.58V33.9687Z" fill="#00A674"/>
</svg>
